<svg width="900" height="600" viewBox="0 0 900 600" fill="none" xmlns="http://www.w3.org/2000/svg">
<rect width="900" height="600" fill="none"/>
<path d="M140 100H355C387.792 100 404.188 100 415.811 108.138C420.111 111.149 423.851 114.889 426.862 119.189C435 130.812 435 147.208 435 180V180H140V100Z" fill="#000000"/>
<path d="M140 100H240V441.5C240 454.051 240 460.326 238.757 465.505C234.806 481.959 221.959 494.806 205.505 498.757C200.326 500 194.051 500 181.5 500H140V100Z" fill="#000000"/>
<path d="M140 260H396C404.367 260 408.551 260 412.003 260.829C422.973 263.462 431.538 272.027 434.171 282.997C435 286.449 435 290.633 435 299V340H140V260Z" fill="#000000"/>
<path d="M760 100H523.5C510.949 100 504.674 100 499.495 101.243C483.041 105.194 470.194 118.041 466.243 134.495C465 139.674 465 145.949 465 158.5V180H760V100Z" fill="#000000"/>
<path d="M760 461C760 469.367 760 473.551 759.171 477.003C756.538 487.973 747.973 496.538 737.003 499.171C733.551 500 729.367 500 721 500H465V459C465 450.633 465 446.449 465.829 442.997C468.462 432.027 477.027 423.462 487.997 420.829C491.449 420 495.633 420 504 420H760V461Z" fill="#000000"/>
<path d="M760 100H660V441.5C660 454.051 660 460.326 661.243 465.505C665.194 481.959 678.041 494.806 694.495 498.757C699.674 500 705.949 500 718.5 500H760V100Z" fill="#000000"/>
<path fill-rule="evenodd" clip-rule="evenodd" d="M645 180H660V195C660 186.716 653.284 180 645 180ZM645 260H660V245C660 253.284 653.284 260 645 260Z" fill="#000000"/>
<path fill-rule="evenodd" clip-rule="evenodd" d="M255 180H240V195C240 186.716 246.716 180 255 180ZM255 260H240V245C240 253.284 246.716 260 255 260Z" fill="#000000"/>
<path fill-rule="evenodd" clip-rule="evenodd" d="M645 340H660V355C660 346.716 653.284 340 645 340ZM645 420H660V405C660 413.284 653.284 420 645 420Z" fill="#000000"/>
<path d="M760 260H504C495.633 260 491.449 260 487.997 260.829C477.027 263.462 468.462 272.027 465.829 282.997C465 286.449 465 290.633 465 299V340H760V260Z" fill="#000000"/>
<path fill-rule="evenodd" clip-rule="evenodd" d="M465 340H495C478.431 340 465 353.431 465 370V340Z" fill="#000000"/>
<path fill-rule="evenodd" clip-rule="evenodd" d="M240 340H255C246.716 340 240 346.716 240 355V340Z" fill="#000000"/>
<path fill-rule="evenodd" clip-rule="evenodd" d="M435 340H405C421.569 340 435 353.431 435 370V340Z" fill="#000000"/>
<path fill-rule="evenodd" clip-rule="evenodd" d="M435 180H405C421.569 180 435 193.431 435 210V180Z" fill="#000000"/>
<path fill-rule="evenodd" clip-rule="evenodd" d="M465 500H495C478.431 500 465 513.431 465 530V500Z" fill="#000000"/>
<path fill-rule="evenodd" clip-rule="evenodd" d="M465 180H495C478.431 180 465 193.431 465 210V180Z" fill="#000000"/>
<path fill-rule="evenodd" clip-rule="evenodd" d="M760 500H790C773.431 500 760 486.569 760 470V500Z" fill="#000000"/>
<path fill-rule="evenodd" clip-rule="evenodd" d="M140 500H110C126.569 500 140 486.569 140 470V500Z" fill="#000000"/>
<path fill-rule="evenodd" clip-rule="evenodd" d="M760 100H790C773.431 100 760 113.431 760 130V100Z" fill="#000000"/>
<path fill-rule="evenodd" clip-rule="evenodd" d="M140 100H110C126.569 100 140 113.431 140 130V100Z" fill="#000000"/>
</svg>
