<svg width="300" height="150" viewBox="0 0 300 150" fill="none" xmlns="http://www.w3.org/2000/svg" opacity="25%">
<g clip-path="url(#clip0_2_4)">
<path d="M18.6647 80.536C31.5912 57.1077 50.5494 37.5636 73.5736 23.9302C96.5978 10.2968 122.85 3.07052 149.608 3.00051C176.365 2.9305 202.655 10.0194 225.75 23.5321C248.845 37.0448 267.905 56.4894 280.954 79.8498L276.371 82.41C263.779 59.8673 245.386 41.1032 223.099 28.0634C200.812 15.0237 175.443 8.18294 149.621 8.2505C123.8 8.31805 98.4669 15.2915 76.2485 28.4477C54.0302 41.6039 35.7355 60.4639 23.2614 83.0723L18.6647 80.536Z" fill="#DA0037"/>
<path d="M39.3874 84.7003C51.0524 65.8086 67.3615 50.2194 86.7602 39.4186C106.159 28.6178 128.001 22.9654 150.203 23.0002C172.406 23.0349 194.23 28.7556 213.595 39.6171C232.96 50.4785 249.22 66.1187 260.826 85.0467L256.393 87.7649C245.251 69.5939 229.641 54.5794 211.051 44.1524C192.461 33.7254 171.51 28.2335 150.195 28.2002C128.881 28.1668 107.913 33.5931 89.2898 43.9619C70.667 54.3307 55.0103 69.2963 43.8119 87.4323L39.3874 84.7003Z" fill="#DA0037"/>
<path d="M58.2696 91.4978C68.4441 76.5652 82.1103 64.3424 98.0813 55.8906C114.052 47.4389 131.845 43.014 149.914 43C167.984 42.9861 185.783 47.3836 201.767 55.8107C217.751 64.2377 231.436 76.4395 241.634 91.3563L237.281 94.3319C227.568 80.1236 214.533 68.5014 199.308 60.4747C184.084 52.4479 167.13 48.2593 149.918 48.2725C132.707 48.2858 115.76 52.5006 100.547 60.5508C85.3351 68.6011 72.318 80.2434 62.6268 94.4666L58.2696 91.4978Z" fill="#DA0037"/>
<path d="M77.128 100.183C85.5277 88.5936 96.5702 79.1751 109.339 72.7087C122.108 66.2423 136.235 62.9146 150.548 63.0017C164.86 63.0888 178.946 66.5882 191.635 73.2095C204.324 79.8309 215.251 89.3831 223.509 101.074L219.466 103.929C211.663 92.8821 201.337 83.8552 189.345 77.598C177.354 71.3409 164.043 68.0339 150.518 67.9516C136.992 67.8693 123.642 71.014 111.575 77.1247C99.5089 83.2355 89.0737 92.136 81.136 103.088L77.128 100.183Z" fill="#DA0037"/>
<path d="M92.6392 112.878C99.0527 103.709 107.571 96.2112 117.479 91.0128C127.388 85.8144 138.399 83.0671 149.588 83.0012C160.777 82.9354 171.819 85.5529 181.789 90.6343C191.758 95.7157 200.364 103.113 206.885 112.206L202.903 115.062C196.838 106.605 188.835 99.7256 179.563 94.9999C170.292 90.2742 160.023 87.8399 149.617 87.9011C139.211 87.9624 128.971 90.5174 119.756 95.3519C110.541 100.186 102.619 107.16 96.6545 115.687L92.6392 112.878Z" fill="#DA0037"/>
<path d="M107.812 126.163C112.373 118.995 118.684 113.106 126.152 109.054C133.619 105.002 141.996 102.919 150.492 103.002C158.988 103.086 167.322 105.333 174.708 109.532C182.094 113.73 188.289 119.741 192.707 126.998L188.437 129.599C184.46 123.067 178.885 117.657 172.237 113.878C165.59 110.1 158.089 108.077 150.443 108.002C142.796 107.927 135.257 109.801 128.537 113.449C121.816 117.096 116.135 122.395 112.031 128.847L107.812 126.163Z" fill="#DA0037"/>
<path d="M121.059 145.1C122.809 138.689 126.638 133.04 131.946 129.041C137.253 125.041 143.738 122.918 150.383 123.002C157.029 123.087 163.457 125.376 168.661 129.51C173.864 133.644 177.548 139.389 179.134 145.842L174.472 146.988C173.14 141.566 170.046 136.741 165.675 133.269C161.304 129.796 155.904 127.873 150.322 127.802C144.74 127.731 139.293 129.515 134.834 132.874C130.376 136.234 127.159 140.979 125.689 146.364L121.059 145.1Z" fill="#DA0037"/>
<path d="M168.665 155.536C181.591 132.108 200.549 112.564 223.574 98.9302C246.598 85.2968 272.85 78.0705 299.608 78.0005C326.365 77.9305 352.655 85.0194 375.75 98.5321C398.845 112.045 417.905 131.489 430.954 154.85L426.371 157.41C413.779 134.867 395.386 116.103 373.099 103.063C350.812 90.0237 325.443 83.1829 299.621 83.2505C273.8 83.3181 248.467 90.2915 226.249 103.448C204.03 116.604 185.736 135.464 173.261 158.072L168.665 155.536Z" fill="#DA0037"/>
<path d="M189.387 159.7C201.052 140.809 217.362 125.219 236.76 114.419C256.159 103.618 278.001 97.9654 300.203 98.0002C322.406 98.0349 344.23 103.756 363.595 114.617C382.96 125.479 399.22 141.119 410.826 160.047L406.393 162.765C395.251 144.594 379.641 129.579 361.051 119.152C342.461 108.725 321.51 103.234 300.195 103.2C278.881 103.167 257.913 108.593 239.29 118.962C220.667 129.331 205.01 144.296 193.812 162.432L189.387 159.7Z" fill="#DA0037"/>
<path d="M208.27 166.498C218.444 151.565 232.11 139.342 248.081 130.891C264.052 122.439 281.845 118.014 299.914 118C317.984 117.986 335.783 122.384 351.767 130.811C367.751 139.238 381.436 151.44 391.634 166.356L387.281 169.332C377.568 155.124 364.533 143.501 349.308 135.475C334.084 127.448 317.13 123.259 299.918 123.273C282.707 123.286 265.76 127.501 250.547 135.551C235.335 143.601 222.318 155.243 212.627 169.467L208.27 166.498Z" fill="#DA0037"/>
<path d="M227.128 175.183C235.528 163.594 246.57 154.175 259.339 147.709C272.108 141.242 286.235 137.915 300.548 138.002C314.86 138.089 328.946 141.588 341.635 148.21C354.324 154.831 365.251 164.383 373.509 176.074L369.466 178.929C361.663 167.882 351.337 158.855 339.345 152.598C327.354 146.341 314.043 143.034 300.518 142.952C286.992 142.869 273.642 146.014 261.575 152.125C249.509 158.235 239.074 167.136 231.136 178.088L227.128 175.183Z" fill="#DA0037"/>
<path d="M-131.335 5.53602C-118.409 -17.8923 -99.4506 -37.4364 -76.4264 -51.0698C-53.4022 -64.7032 -27.1502 -71.9295 -0.392459 -71.9995C26.3653 -72.0695 52.6547 -64.9806 75.7499 -51.4679C98.8452 -37.9552 117.905 -18.5106 130.954 4.84976L126.371 7.41002C113.779 -15.1327 95.3856 -33.8968 73.0987 -46.9366C50.8118 -59.9763 25.4425 -66.8171 -0.378723 -66.7495C-26.2 -66.6819 -51.5331 -59.7085 -73.7515 -46.5523C-95.9698 -33.3961 -114.264 -14.5361 -126.739 8.07226L-131.335 5.53602Z" fill="#DA0037"/>
<path d="M-110.613 9.70028C-98.9476 -9.19137 -82.6385 -24.7806 -63.2398 -35.5814C-43.8411 -46.3822 -21.9994 -52.0346 0.203402 -51.9998C22.4062 -51.9651 44.2301 -46.2444 63.5949 -35.3829C82.9597 -24.5215 99.22 -8.88131 110.826 10.0467L106.393 12.7649C95.2512 -5.40605 79.6413 -20.4206 61.0511 -30.8476C42.4609 -41.2746 21.51 -46.7665 0.195266 -46.7998C-21.1194 -46.8332 -42.0875 -41.4069 -60.7102 -31.0381C-79.333 -20.6693 -94.9897 -5.70371 -106.188 12.4323L-110.613 9.70028Z" fill="#DA0037"/>
<path d="M-91.7304 16.4978C-81.5559 1.56524 -67.8897 -10.6576 -51.9187 -19.1094C-35.9478 -27.5611 -18.155 -31.986 -0.0856244 -32C17.9838 -32.0139 35.7833 -27.6164 51.7673 -19.1893C67.7513 -10.7623 81.4363 1.43951 91.6339 16.3563L87.2813 19.3319C77.5681 5.12364 64.5331 -6.49857 49.3084 -14.5253C34.0836 -22.5521 17.1295 -26.7407 -0.0815573 -26.7275C-17.2926 -26.7142 -34.2403 -22.4994 -49.4526 -14.4492C-64.6649 -6.39891 -77.682 5.24339 -87.3732 19.4666L-91.7304 16.4978Z" fill="#DA0037"/>
<path d="M-72.872 25.1826C-64.4723 13.5936 -53.4298 4.17509 -40.6609 -2.29131C-27.892 -8.7577 -13.7649 -12.0854 0.547726 -11.9983C14.8604 -11.9112 28.9459 -8.41179 41.6351 -1.79046C54.3244 4.83087 65.2515 14.3831 73.5095 26.0735L69.4664 28.9295C61.6626 17.8821 51.3365 8.85517 39.3452 2.59802C27.3538 -3.65914 14.0431 -6.96611 0.517601 -7.04843C-13.0079 -7.13074 -26.3579 -3.98603 -38.4245 2.12471C-50.4911 8.23546 -60.9263 17.136 -68.864 28.0876L-72.872 25.1826Z" fill="#DA0037"/>
<path d="M-57.3608 37.8784C-50.9473 28.7093 -42.4292 21.2112 -32.5205 16.0128C-22.6119 10.8144 -11.6013 8.06707 -0.411989 8.00121C10.7774 7.93536 21.8194 10.5529 31.7886 15.6343C41.7578 20.7157 50.3636 28.113 56.8845 37.206L52.9026 40.0616C46.8382 31.6051 38.8348 24.7256 29.5634 19.9999C20.2921 15.2742 10.0229 12.8399 -0.38315 12.9011C-10.7892 12.9624 -21.029 15.5174 -30.2441 20.3519C-39.4592 25.1864 -47.381 32.1596 -53.3455 40.6869L-57.3608 37.8784Z" fill="#DA0037"/>
<path d="M-42.1876 51.1633C-37.6274 43.9947 -31.3158 38.1063 -23.8483 34.0539C-16.3809 30.0015 -8.00397 27.9189 0.491767 28.0024C8.9875 28.086 17.3218 30.333 24.7081 34.5315C32.0944 38.73 38.289 44.7414 42.7073 51.9983L38.4366 54.5985C34.4601 48.0673 28.885 42.657 22.2373 38.8784C15.5896 35.0997 8.08875 33.0774 0.44259 33.0022C-7.20357 32.927 -14.7428 34.8014 -21.4635 38.4485C-28.1842 42.0957 -33.8647 47.3952 -37.9688 53.847L-42.1876 51.1633Z" fill="#DA0037"/>
<path d="M-28.9412 70.1002C-27.1912 63.689 -23.362 58.0404 -18.0545 54.041C-12.747 50.0415 -6.26175 47.9175 0.383399 48.0025C7.02854 48.0874 13.4574 50.3764 18.6609 54.5102C23.8644 58.644 27.5481 64.3887 29.1336 70.8424L24.4723 71.9876C23.1404 66.5665 20.0461 61.741 15.6752 58.2686C11.3042 54.7962 5.90398 52.8734 0.322055 52.8021C-5.25987 52.7307 -10.7075 54.5148 -15.1658 57.8744C-19.624 61.234 -22.8406 65.9788 -24.3106 71.3641L-28.9412 70.1002Z" fill="#DA0037"/>
<path d="M-131.335 155.536C-118.409 132.108 -99.4506 112.564 -76.4264 98.9302C-53.4022 85.2968 -27.1502 78.0705 -0.392459 78.0005C26.3653 77.9305 52.6547 85.0194 75.7499 98.5321C98.8452 112.045 117.905 131.489 130.954 154.85L126.371 157.41C113.779 134.867 95.3856 116.103 73.0987 103.063C50.8118 90.0237 25.4425 83.1829 -0.378723 83.2505C-26.2 83.3181 -51.5331 90.2915 -73.7515 103.448C-95.9698 116.604 -114.264 135.464 -126.739 158.072L-131.335 155.536Z" fill="#DA0037"/>
<path d="M-110.613 159.7C-98.9476 140.809 -82.6385 125.219 -63.2398 114.419C-43.8411 103.618 -21.9994 97.9654 0.203402 98.0002C22.4062 98.0349 44.2301 103.756 63.5949 114.617C82.9597 125.479 99.22 141.119 110.826 160.047L106.393 162.765C95.2512 144.594 79.6413 129.579 61.0511 119.152C42.4609 108.725 21.51 103.234 0.195266 103.2C-21.1194 103.167 -42.0875 108.593 -60.7102 118.962C-79.333 129.331 -94.9897 144.296 -106.188 162.432L-110.613 159.7Z" fill="#DA0037"/>
<path d="M-91.7304 166.498C-81.5559 151.565 -67.8897 139.342 -51.9187 130.891C-35.9478 122.439 -18.155 118.014 -0.0856244 118C17.9838 117.986 35.7833 122.384 51.7673 130.811C67.7513 139.238 81.4363 151.44 91.6339 166.356L87.2813 169.332C77.5681 155.124 64.5331 143.501 49.3084 135.475C34.0836 127.448 17.1295 123.259 -0.0815573 123.273C-17.2926 123.286 -34.2403 127.501 -49.4526 135.551C-64.6649 143.601 -77.682 155.243 -87.3732 169.467L-91.7304 166.498Z" fill="#DA0037"/>
<path d="M-72.872 175.183C-64.4723 163.594 -53.4298 154.175 -40.6609 147.709C-27.892 141.242 -13.7649 137.915 0.547726 138.002C14.8604 138.089 28.9459 141.588 41.6351 148.21C54.3244 154.831 65.2515 164.383 73.5095 176.074L69.4664 178.929C61.6626 167.882 51.3365 158.855 39.3452 152.598C27.3538 146.341 14.0431 143.034 0.517601 142.952C-13.0079 142.869 -26.3579 146.014 -38.4245 152.125C-50.4911 158.235 -60.9263 167.136 -68.864 178.088L-72.872 175.183Z" fill="#DA0037"/>
<path d="M168.665 5.53602C181.591 -17.8923 200.549 -37.4364 223.574 -51.0698C246.598 -64.7032 272.85 -71.9295 299.608 -71.9995C326.365 -72.0695 352.655 -64.9806 375.75 -51.4679C398.845 -37.9552 417.905 -18.5106 430.954 4.84976L426.371 7.41002C413.779 -15.1327 395.386 -33.8968 373.099 -46.9366C350.812 -59.9763 325.443 -66.8171 299.621 -66.7495C273.8 -66.6819 248.467 -59.7085 226.249 -46.5523C204.03 -33.3961 185.736 -14.5361 173.261 8.07226L168.665 5.53602Z" fill="#DA0037"/>
<path d="M189.387 9.70028C201.052 -9.19137 217.362 -24.7806 236.76 -35.5814C256.159 -46.3822 278.001 -52.0346 300.203 -51.9998C322.406 -51.9651 344.23 -46.2444 363.595 -35.3829C382.96 -24.5215 399.22 -8.88131 410.826 10.0467L406.393 12.7649C395.251 -5.40605 379.641 -20.4206 361.051 -30.8476C342.461 -41.2746 321.51 -46.7665 300.195 -46.7998C278.881 -46.8332 257.913 -41.4069 239.29 -31.0381C220.667 -20.6693 205.01 -5.70371 193.812 12.4323L189.387 9.70028Z" fill="#DA0037"/>
<path d="M208.27 16.4978C218.444 1.56524 232.11 -10.6576 248.081 -19.1094C264.052 -27.5611 281.845 -31.986 299.914 -32C317.984 -32.0139 335.783 -27.6164 351.767 -19.1893C367.751 -10.7623 381.436 1.43951 391.634 16.3563L387.281 19.3319C377.568 5.12364 364.533 -6.49857 349.308 -14.5253C334.084 -22.5521 317.13 -26.7407 299.918 -26.7275C282.707 -26.7142 265.76 -22.4994 250.547 -14.4492C235.335 -6.39891 222.318 5.24339 212.627 19.4666L208.27 16.4978Z" fill="#DA0037"/>
<path d="M227.128 25.1826C235.528 13.5936 246.57 4.17509 259.339 -2.29131C272.108 -8.7577 286.235 -12.0854 300.548 -11.9983C314.86 -11.9112 328.946 -8.41179 341.635 -1.79046C354.324 4.83087 365.251 14.3831 373.509 26.0735L369.466 28.9295C361.663 17.8821 351.337 8.85517 339.345 2.59802C327.354 -3.65914 314.043 -6.96611 300.518 -7.04843C286.992 -7.13074 273.642 -3.98603 261.575 2.12471C249.509 8.23546 239.074 17.136 231.136 28.0876L227.128 25.1826Z" fill="#DA0037"/>
<path d="M242.639 37.8784C249.053 28.7093 257.571 21.2112 267.479 16.0128C277.388 10.8144 288.399 8.06707 299.588 8.00121C310.777 7.93536 321.819 10.5529 331.789 15.6343C341.758 20.7157 350.364 28.113 356.885 37.206L352.903 40.0616C346.838 31.6051 338.835 24.7256 329.563 19.9999C320.292 15.2742 310.023 12.8399 299.617 12.9011C289.211 12.9624 278.971 15.5174 269.756 20.3519C260.541 25.1864 252.619 32.1596 246.654 40.6869L242.639 37.8784Z" fill="#DA0037"/>
<path d="M257.812 51.1633C262.373 43.9947 268.684 38.1063 276.152 34.0539C283.619 30.0015 291.996 27.9189 300.492 28.0024C308.988 28.086 317.322 30.333 324.708 34.5315C332.094 38.73 338.289 44.7414 342.707 51.9983L338.437 54.5985C334.46 48.0673 328.885 42.657 322.237 38.8784C315.59 35.0997 308.089 33.0774 300.443 33.0022C292.796 32.927 285.257 34.8014 278.537 38.4485C271.816 42.0957 266.135 47.3952 262.031 53.847L257.812 51.1633Z" fill="#DA0037"/>
<path d="M271.059 70.1002C272.809 63.689 276.638 58.0404 281.946 54.041C287.253 50.0415 293.738 47.9175 300.383 48.0025C307.029 48.0874 313.457 50.3764 318.661 54.5102C323.864 58.644 327.548 64.3887 329.134 70.8424L324.472 71.9876C323.14 66.5665 320.046 61.741 315.675 58.2686C311.304 54.7962 305.904 52.8734 300.322 52.8021C294.74 52.7307 289.293 54.5148 284.834 57.8744C280.376 61.234 277.159 65.9788 275.689 71.3641L271.059 70.1002Z" fill="#DA0037"/>
</g>
<defs>
<clipPath id="clip0_2_4">
<rect width="300" height="150" fill="none"/>
</clipPath>
</defs>
</svg>
